<svg xmlns="http://www.w3.org/2000/svg" viewBox="0 0 1286 304" width="1286" height="304" style="--bg:#FFFFFF;--fg:#27272A;background:var(--bg)">

<style>
  @import url('https://fonts.googleapis.com/css2?family=Inter:wght@400;500;600;700&amp;display=swap');
  text { font-family: 'Inter', system-ui, sans-serif; }
  svg {
    --_text:          var(--fg);
    --_text-sec:      var(--muted, color-mix(in srgb, var(--fg) 60%, var(--bg)));
    --_text-muted:    var(--muted, color-mix(in srgb, var(--fg) 40%, var(--bg)));
    --_text-faint:    color-mix(in srgb, var(--fg) 25%, var(--bg));
    --_line:          var(--line, color-mix(in srgb, var(--fg) 30%, var(--bg)));
    --_arrow:         var(--accent, color-mix(in srgb, var(--fg) 50%, var(--bg)));
    --_node-fill:     var(--surface, color-mix(in srgb, var(--fg) 3%, var(--bg)));
    --_node-stroke:   var(--border, color-mix(in srgb, var(--fg) 20%, var(--bg)));
    --_group-fill:    var(--bg);
    --_group-hdr:     color-mix(in srgb, var(--fg) 5%, var(--bg));
    --_inner-stroke:  color-mix(in srgb, var(--fg) 12%, var(--bg));
    --_key-badge:     color-mix(in srgb, var(--fg) 10%, var(--bg));
  }
</style>

<defs>
  <marker id="arrowhead" markerWidth="8" markerHeight="4.8" refX="8" refY="2.4" orient="auto">
    <polygon points="0 0, 8 2.4, 0 4.8" fill="var(--_arrow)" />
  </marker>
</defs>
<rect x="368" y="40" width="309.5" height="224" rx="8" ry="8" fill="var(--_group-fill)" stroke="var(--_node-stroke)" stroke-width="1" stroke-dasharray="6 3" /><rect x="368" y="40" width="309.5" height="28" rx="8" ry="8" fill="var(--_group-hdr)" stroke="var(--_node-stroke)" stroke-width="1" stroke-dasharray="6 3" /><rect x="368" y="60" width="309.5" height="8" fill="var(--_group-hdr)" /><rect x="384" y="88" width="277.5" height="156" rx="8" ry="8" fill="var(--_group-fill)" stroke="var(--_node-stroke)" stroke-width="1" stroke-dasharray="6 3" /><rect x="384" y="88" width="277.5" height="28" rx="8" ry="8" fill="var(--_group-hdr)" stroke="var(--_node-stroke)" stroke-width="1" stroke-dasharray="6 3" /><rect x="384" y="108" width="277.5" height="8" fill="var(--_group-hdr)" /><polyline points="131,152 171,152" fill="none" stroke="var(--_line)" stroke-width="1" marker-end="url(#arrowhead)" /><polyline points="131,204 171,152" fill="none" stroke="var(--_line)" stroke-width="1" marker-end="url(#arrowhead)" /><polyline points="328,152 344,152 344,152 482.75,152" fill="none" stroke="var(--_line)" stroke-width="1" marker-end="url(#arrowhead)" /><polyline points="328,152 352,152 352,204 404,204" fill="none" stroke="var(--_line)" stroke-width="1" marker-end="url(#arrowhead)" /><polyline points="521.5,204 561.5,204" fill="none" stroke="var(--_line)" stroke-width="1" marker-end="url(#arrowhead)" /><polyline points="562.75,152 669.5,152 669.5,152 717.5,152" fill="none" stroke="var(--_line)" stroke-width="1" marker-end="url(#arrowhead)" /><polyline points="641.5,204 675.5,204 675.5,152 717.5,152" fill="none" stroke="var(--_line)" stroke-width="1" marker-end="url(#arrowhead)" /><polyline points="882,152 922,152" fill="none" stroke="var(--_line)" stroke-width="1" marker-end="url(#arrowhead)" /><polyline points="1079,152 1119,152" fill="none" stroke="var(--_line)" stroke-width="1" marker-end="url(#arrowhead)" /><g transform="translate(378,46)">
    <svg viewBox="0 0 24 24" width="16" height="16" fill="#000000">
      <path d="m12 1.608 12 20.784H0Z" />
    </svg>
  </g><text x="400" y="54" dy="0.35em" font-size="12" font-weight="600" fill="var(--_text-sec)">Vercel (Hobby)</text><g transform="translate(394,94)">
    <svg viewBox="0 0 24 24" width="16" height="16" fill="#000000">
      <path d="M18.665 21.978C16.758 23.255 14.465 24 12 24 5.377 24 0 18.623 0 12S5.377 0 12 0s12 5.377 12 12c0 3.583-1.574 6.801-4.067 9.001L9.219 7.2H7.2v9.596h1.615V9.251l9.85 12.727Zm-3.332-8.533 1.6 2.061V7.2h-1.6v6.245Z" />
    </svg>
  </g><text x="416" y="102" dy="0.35em" font-size="12" font-weight="600" fill="var(--_text-sec)">Next.js 15</text><rect x="40" y="132" width="91" height="40" rx="6" ry="6" fill="var(--_node-fill)" stroke="var(--_node-stroke)" stroke-width="1" /><g transform="translate(50,142)">
    <svg viewBox="0 0 24 24" width="20" height="20" fill="var(--_text-sec)">
      <path d="M12 12c2.21 0 4-1.79 4-4s-1.79-4-4-4-4 1.79-4 4 1.79 4 4 4zm0 2c-2.67 0-8 1.34-8 4v2h16v-2c0-2.66-5.33-4-8-4z" />
    </svg>
  </g><text x="99.5" y="152" text-anchor="middle" dy="0.35em" font-size="13" font-weight="500" fill="var(--_text)">閲覧者</text><rect x="40" y="184" width="91" height="40" rx="6" ry="6" fill="var(--_node-fill)" stroke="var(--_node-stroke)" stroke-width="1" /><g transform="translate(50,194)">
    <svg viewBox="0 0 24 24" width="20" height="20" fill="var(--_text-sec)">
      <path d="M12 12c2.21 0 4-1.79 4-4s-1.79-4-4-4-4 1.79-4 4 1.79 4 4 4zm0 2c-2.67 0-8 1.34-8 4v2h16v-2c0-2.66-5.33-4-8-4z" />
    </svg>
  </g><text x="99.5" y="204" text-anchor="middle" dy="0.35em" font-size="13" font-weight="500" fill="var(--_text)">管理者</text><rect x="171" y="132" width="157" height="40" rx="6" ry="6" fill="var(--_node-fill)" stroke="var(--_node-stroke)" stroke-width="1" /><g transform="translate(181,142)">
    <svg viewBox="0 0 24 24" width="20" height="20" fill="#F38020">
      <path d="M16.5088 16.8447c.1475-.5068.0908-.9707-.1553-1.3154-.2246-.3164-.6045-.499-1.0615-.5205l-8.6592-.1123a.1559.1559 0 0 1-.1333-.0713c-.0283-.042-.0351-.0986-.021-.1553.0278-.084.1123-.1484.2036-.1562l8.7359-.1123c1.0351-.0489 2.1601-.8868 2.5537-1.9136l.499-1.3013c.0215-.0561.0293-.1128.0147-.168-.5625-2.5463-2.835-4.4453-5.5499-4.4453-2.5039 0-4.6284 1.6177-5.3876 3.8614-.4927-.3658-1.1187-.5625-1.794-.499-1.2026.119-2.1665 1.083-2.2861 2.2856-.0283.31-.0069.6128.0635.894C1.5683 13.171 0 14.7754 0 16.752c0 .1748.0142.3515.0352.5273.0141.083.0844.1475.1689.1475h15.9814c.0909 0 .1758-.0645.2032-.1553l.12-.4268zm2.7568-5.5634c-.0771 0-.1611 0-.2383.0112-.0566 0-.1054.0415-.127.0976l-.3378 1.1744c-.1475.5068-.0918.9707.1543 1.3164.2256.3164.6055.498 1.0625.5195l1.8437.1133c.0557 0 .1055.0263.1329.0703.0283.043.0351.1074.0214.1562-.0283.084-.1132.1485-.204.1553l-1.921.1123c-1.041.0488-2.1582.8867-2.5527 1.914l-.1406.3585c-.0283.0713.0215.1416.0986.1416h6.5977c.0771 0 .1474-.0489.169-.126.1122-.4082.1757-.837.1757-1.2803 0-2.6025-2.125-4.727-4.7344-4.727" />
    </svg>
  </g><text x="263.5" y="152" text-anchor="middle" dy="0.35em" font-size="13" font-weight="500" fill="var(--_text)">Cloudflare CDN</text><rect x="482.75" y="132" width="80" height="40" rx="6" ry="6" fill="var(--_node-fill)" stroke="var(--_node-stroke)" stroke-width="1" /><text x="522.75" y="152" text-anchor="middle" dy="0.35em" font-size="13" font-weight="500" fill="var(--_text)">ISR</text><rect x="404" y="184" width="117.5" height="40" rx="6" ry="6" fill="var(--_node-fill)" stroke="var(--_node-stroke)" stroke-width="1" /><text x="462.75" y="204" text-anchor="middle" dy="0.35em" font-size="13" font-weight="500" fill="var(--_text)">NextAuth 認証</text><rect x="561.5" y="184" width="80" height="40" rx="6" ry="6" fill="var(--_node-fill)" stroke="var(--_node-stroke)" stroke-width="1" /><text x="601.5" y="204" text-anchor="middle" dy="0.35em" font-size="13" font-weight="500" fill="var(--_text)">記事管理</text><rect x="717.5" y="132" width="164.5" height="40" rx="6" ry="6" fill="var(--_node-fill)" stroke="var(--_node-stroke)" stroke-width="1" /><g transform="translate(727.5,142)">
    <svg viewBox="0 0 24 24" width="20" height="20" fill="#311C87">
      <path d="M12,0C5.372,0 0,5.373 0,12 0,18.628 5.372,24 12,24 18.627,24 24,18.628 24,12A12.014,12.014 0 0 0 23.527,8.657 0.6,0.6 0 0 0 22.4,9.066H22.398C22.663,10.009 22.8,10.994 22.8,12A10.73,10.73 0 0 1 19.637,19.637 10.729,10.729 0 0 1 12,22.8 10.73,10.73 0 0 1 4.363,19.637 10.728,10.728 0 0 1 1.2,12 10.73,10.73 0 0 1 4.363,4.363 10.728,10.728 0 0 1 12,1.2C14.576,1.2 17.013,2.096 18.958,3.74A1.466,1.466 0 1 0 19.82,2.9 11.953,11.953 0 0 0 12,0ZM10.56,5.88 6.36,16.782H8.99L9.677,14.934H13.646L12.927,12.892H10.314L12.014,8.201 15.038,16.781H17.669L13.47,5.88Z" />
    </svg>
  </g><text x="813.75" y="152" text-anchor="middle" dy="0.35em" font-size="13" font-weight="500" fill="var(--_text)">Apollo Client 3</text><rect x="922" y="132" width="157" height="40" rx="6" ry="6" fill="var(--_node-fill)" stroke="var(--_node-stroke)" stroke-width="1" /><g transform="translate(932,142)">
    <svg viewBox="0 0 24 24" width="20" height="20" fill="#1EB4D4">
      <path d="M23.558 8.172c.707-2.152.282-6.447-1.09-8.032a.419.419 0 0 0-.664.051l-1.69 2.59a1.322 1.322 0 0 1-1.737.276C16.544 1.885 14.354 1.204 12 1.204s-4.544.68-6.378 1.853a1.326 1.326 0 0 1-1.736-.276L2.196.191A.42.42 0 0 0 1.532.14C.16 1.728-.265 6.023.442 8.172c.236.716.3 1.472.16 2.207-.137.73-.276 1.61-.276 2.223C.326 18.898 5.553 24 11.997 24c6.447 0 11.671-5.105 11.671-11.398 0-.613-.138-1.494-.276-2.223a4.468 4.468 0 0 1 .166-2.207zm-11.56 13.284c-4.984 0-9.036-3.96-9.036-8.827 0-.16.005-.316.014-.473.18-3.316 2.243-6.15 5.16-7.5 1.17-.546 2.481-.848 3.864-.848s2.69.302 3.864.85c2.917 1.351 4.98 4.187 5.16 7.501.008.157.014.316.014.473-.003 4.864-4.057 8.824-9.04 8.824zm3.915-5.43-2.31-3.91-1.98-3.26a.26.26 0 0 0-.223-.125H9.508a.26.26 0 0 0-.227.13.246.246 0 0 0 .003.254l1.895 3.109-2.542 3.787a.25.25 0 0 0-.011.259.26.26 0 0 0 .23.132h1.905a.259.259 0 0 0 .218-.116l1.375-2.096 1.233 2.088a.263.263 0 0 0 .224.127h1.878c.094 0 .18-.049.224-.127a.241.241 0 0 0 0-.251z" />
    </svg>
  </g><text x="1014.5" y="152" text-anchor="middle" dy="0.35em" font-size="13" font-weight="500" fill="var(--_text)">Hasura GraphQL</text><rect x="1119" y="132" width="127" height="40" rx="6" ry="6" fill="var(--_node-fill)" stroke="var(--_node-stroke)" stroke-width="1" /><g transform="translate(1129,142)">
    <svg viewBox="0 0 24 24" width="20" height="20" fill="#4169E1">
      <path d="M23.5594 14.7228a.5269.5269 0 0 0-.0563-.1191c-.139-.2632-.4768-.3418-1.0074-.2321-1.6533.3411-2.2935.1312-2.5256-.0191 1.342-2.0482 2.445-4.522 3.0411-6.8297.2714-1.0507.7982-3.5237.1222-4.7316a1.5641 1.5641 0 0 0-.1509-.235C21.6931.9086 19.8007.0248 17.5099.0005c-1.4947-.0158-2.7705.3461-3.1161.4794a9.449 9.449 0 0 0-.5159-.0816 8.044 8.044 0 0 0-1.3114-.1278c-1.1822-.0184-2.2038.2642-3.0498.8406-.8573-.3211-4.7888-1.645-7.2219.0788C.9359 2.1526.3086 3.8733.4302 6.3043c.0409.818.5069 3.334 1.2423 5.7436.4598 1.5065.9387 2.7019 1.4334 3.582.553.9942 1.1259 1.5933 1.7143 1.7895.4474.1491 1.1327.1441 1.8581-.7279.8012-.9635 1.5903-1.8258 1.9446-2.2069.4351.2355.9064.3625 1.39.3772a.0569.0569 0 0 0 .0004.0041 11.0312 11.0312 0 0 0-.2472.3054c-.3389.4302-.4094.5197-1.5002.7443-.3102.064-1.1344.2339-1.1464.8115-.0025.1224.0329.2309.0919.3268.2269.4231.9216.6097 1.015.6331 1.3345.3335 2.5044.092 3.3714-.6787-.017 2.231.0775 4.4174.3454 5.0874.2212.5529.7618 1.9045 2.4692 1.9043.2505 0 .5263-.0291.8296-.0941 1.7819-.3821 2.5557-1.1696 2.855-2.9059.1503-.8707.4016-2.8753.5388-4.1012.0169-.0703.0357-.1207.057-.1362.0007-.0005.0697-.0471.4272.0307a.3673.3673 0 0 0 .0443.0068l.2539.0223.0149.001c.8468.0384 1.9114-.1426 2.5312-.4308.6438-.2988 1.8057-1.0323 1.5951-1.6698zM2.371 11.8765c-.7435-2.4358-1.1779-4.8851-1.2123-5.5719-.1086-2.1714.4171-3.6829 1.5623-4.4927 1.8367-1.2986 4.8398-.5408 6.108-.13-.0032.0032-.0066.0061-.0098.0094-2.0238 2.044-1.9758 5.536-1.9708 5.7495-.0002.0823.0066.1989.0162.3593.0348.5873.0996 1.6804-.0735 2.9184-.1609 1.1504.1937 2.2764.9728 3.0892.0806.0841.1648.1631.2518.2374-.3468.3714-1.1004 1.1926-1.9025 2.1576-.5677.6825-.9597.5517-1.0886.5087-.3919-.1307-.813-.5871-1.2381-1.3223-.4796-.839-.9635-2.0317-1.4155-3.5126zm6.0072 5.0871c-.1711-.0428-.3271-.1132-.4322-.1772.0889-.0394.2374-.0902.4833-.1409 1.2833-.2641 1.4815-.4506 1.9143-1.0002.0992-.126.2116-.2687.3673-.4426a.3549.3549 0 0 0 .0737-.1298c.1708-.1513.2724-.1099.4369-.0417.156.0646.3078.26.3695.4752.0291.1016.0619.2945-.0452.4444-.9043 1.2658-2.2216 1.2494-3.1676 1.0128zm2.094-3.988-.0525.141c-.133.3566-.2567.6881-.3334 1.003-.6674-.0021-1.3168-.2872-1.8105-.8024-.6279-.6551-.9131-1.5664-.7825-2.5004.1828-1.3079.1153-2.4468.079-3.0586-.005-.0857-.0095-.1607-.0122-.2199.2957-.2621 1.6659-.9962 2.6429-.7724.4459.1022.7176.4057.8305.928.5846 2.7038.0774 3.8307-.3302 4.7363-.084.1866-.1633.3629-.2311.5454zm7.3637 4.5725c-.0169.1768-.0358.376-.0618.5959l-.146.4383a.3547.3547 0 0 0-.0182.1077c-.0059.4747-.054.6489-.115.8693-.0634.2292-.1353.4891-.1794 1.0575-.11 1.4143-.8782 2.2267-2.4172 2.5565-1.5155.3251-1.7843-.4968-2.0212-1.2217a6.5824 6.5824 0 0 0-.0769-.2266c-.2154-.5858-.1911-1.4119-.1574-2.5551.0165-.5612-.0249-1.9013-.3302-2.6462.0044-.2932.0106-.5909.019-.8918a.3529.3529 0 0 0-.0153-.1126 1.4927 1.4927 0 0 0-.0439-.208c-.1226-.4283-.4213-.7866-.7797-.9351-.1424-.059-.4038-.1672-.7178-.0869.067-.276.1831-.5875.309-.9249l.0529-.142c.0595-.16.134-.3257.213-.5012.4265-.9476 1.0106-2.2453.3766-5.1772-.2374-1.0981-1.0304-1.6343-2.2324-1.5098-.7207.0746-1.3799.3654-1.7088.5321a5.6716 5.6716 0 0 0-.1958.1041c.0918-1.1064.4386-3.1741 1.7357-4.4823a4.0306 4.0306 0 0 1 .3033-.276.3532.3532 0 0 0 .1447-.0644c.7524-.5706 1.6945-.8506 2.802-.8325.4091.0067.8017.0339 1.1742.081 1.939.3544 3.2439 1.4468 4.0359 2.3827.8143.9623 1.2552 1.9315 1.4312 2.4543-1.3232-.1346-2.2234.1268-2.6797.779-.9926 1.4189.543 4.1729 1.2811 5.4964.1353.2426.2522.4522.2889.5413.2403.5825.5515.9713.7787 1.2552.0696.087.1372.1714.1885.245-.4008.1155-1.1208.3825-1.0552 1.717-.0123.1563-.0423.4469-.0834.8148-.0461.2077-.0702.4603-.0994.7662zm.8905-1.6211c-.0405-.8316.2691-.9185.5967-1.0105a2.8566 2.8566 0 0 0 .135-.0406 1.202 1.202 0 0 0 .1342.103c.5703.3765 1.5823.4213 3.0068.1344-.2016.1769-.5189.3994-.9533.6011-.4098.1903-1.0957.333-1.7473.3636-.7197.0336-1.0859-.0807-1.1721-.151zm.5695-9.2712c-.0059.3508-.0542.6692-.1054 1.0017-.055.3576-.112.7274-.1264 1.1762-.0142.4368.0404.8909.0932 1.3301.1066.887.216 1.8003-.2075 2.7014a3.5272 3.5272 0 0 1-.1876-.3856c-.0527-.1276-.1669-.3326-.3251-.6162-.6156-1.1041-2.0574-3.6896-1.3193-4.7446.3795-.5427 1.3408-.5661 2.1781-.463zm.2284 7.0137a12.3762 12.3762 0 0 0-.0853-.1074l-.0355-.0444c.7262-1.1995.5842-2.3862.4578-3.4385-.0519-.4318-.1009-.8396-.0885-1.2226.0129-.4061.0666-.7543.1185-1.0911.0639-.415.1288-.8443.1109-1.3505.0134-.0531.0188-.1158.0118-.1902-.0457-.4855-.5999-1.938-1.7294-3.253-.6076-.7073-1.4896-1.4972-2.6889-2.0395.5251-.1066 1.2328-.2035 2.0244-.1859 2.0515.0456 3.6746.8135 4.8242 2.2824a.908.908 0 0 1 .0667.1002c.7231 1.3556-.2762 6.2751-2.9867 10.5405zm-8.8166-6.1162c-.025.1794-.3089.4225-.6211.4225a.5821.5821 0 0 1-.0809-.0056c-.1873-.026-.3765-.144-.5059-.3156-.0458-.0605-.1203-.178-.1055-.2844.0055-.0401.0261-.0985.0925-.1488.1182-.0894.3518-.1226.6096-.0867.3163.0441.6426.1938.6113.4186zm7.9305-.4114c.0111.0792-.049.201-.1531.3102-.0683.0717-.212.1961-.4079.2232a.5456.5456 0 0 1-.075.0052c-.2935 0-.5414-.2344-.5607-.3717-.024-.1765.2641-.3106.5611-.352.297-.0414.6111.0088.6356.1851z" />
    </svg>
  </g><text x="1196.5" y="152" text-anchor="middle" dy="0.35em" font-size="13" font-weight="500" fill="var(--_text)">PostgreSQL</text>
</svg>